<?xml version="1.0" encoding="UTF-8"?>
<svg xmlns="http://www.w3.org/2000/svg" fill-opacity="1" width="16" height="16"
     stroke-width="0">
    <defs id="xenoamess@gmail.com"/>
    <g transform="translate(8.0,8.0)">
        <circle cx="0" cy="0" r="8.0" fill="#FFFFFF"/>
        <path d="M 0 0 2.47213595499958 -7.608452130361228 A 8.0 8.0 0 0 0 -2.472135954999582 -7.608452130361228Z"
              fill="#FF0000"/>
        <path d="M 0 0 -5.353044850870866 -5.945158603819154 A 8.0 8.0 0 0 0 -7.825180805870445 -1.6632935265420783Z"
              fill="#000000"/>
        <path d="M 0 0 -7.825180805870446 1.6632935265420685 A 8.0 8.0 0 0 0 -5.353044850870865 5.945158603819154Z"
              fill="#FF0000"/>
        <path d="M 0 0 -2.472135954999581 7.608452130361228 A 8.0 8.0 0 0 0 2.4721359549995774 7.608452130361229Z"
              fill="#000000"/>
        <path d="M 0 0 5.353044850870868 5.945158603819152 A 8.0 8.0 0 0 0 7.8251808058704455 1.6632935265420723Z"
              fill="#FF0000"/>
        <path d="M 0 0 7.825180805870444 -1.6632935265420814 A 8.0 8.0 0 0 0 5.353044850870871 -5.945158603819149Z"
              fill="#000000"/>
        <circle cx="0" cy="0" r="4.0" fill="#FFFFFF"/>
    </g>
</svg>